<svg xmlns="http://www.w3.org/2000/svg" x="0px" y="0px"
width="64" height="64"
viewBox="0 0 64 64"
style=" fill:#000000;"><g data-name="Planetary System"><path fill="#ee8700" d="M28.01,41.73a16.685,16.685,0,0,0,4.64-1.55,16.929,16.929,0,0,0,7.53-7.53,16.685,16.685,0,0,0,1.55-4.64A13.981,13.981,0,0,0,28.01,41.73Z"></path><path fill="#ff9811" d="M28.91,46.96a12.838,12.838,0,0,1-.55-1.79c1.19-1.5,2.6-3.16,4.29-4.99a16.929,16.929,0,0,0,7.53-7.53c1.83-1.69,3.49-3.1,4.99-4.29a12.838,12.838,0,0,1,1.79.55c.03.36.04.72.04,1.09a16.377,16.377,0,0,1-.15,2.23A102.383,102.383,0,0,0,32.23,46.85,16.377,16.377,0,0,1,30,47C29.63,47,29.27,46.99,28.91,46.96Z"></path><path fill="#ff9811" d="M56,42q0,.435-.03.87a13.991,13.991,0,0,1-13.1,13.1Q42.435,56,42,56a14.324,14.324,0,0,1-3.17-.36,101.678,101.678,0,0,0,8.83-7.98,101.678,101.678,0,0,0,7.98-8.83A14.324,14.324,0,0,1,56,42Z"></path><path fill="#ff9811" d="M46.96,28.91a12.838,12.838,0,0,0-1.79-.55A14.324,14.324,0,0,0,42,28a2.437,2.437,0,0,0-.27.01,16.685,16.685,0,0,1-1.55,4.64,16.929,16.929,0,0,1-7.53,7.53,16.685,16.685,0,0,1-4.64,1.55A2.437,2.437,0,0,0,28,42a14.324,14.324,0,0,0,.36,3.17,12.838,12.838,0,0,0,.55,1.79c.36.03.72.04,1.09.04a16.377,16.377,0,0,0,2.23-.15A16.976,16.976,0,0,0,46.85,32.23,16.377,16.377,0,0,0,47,30C47,29.63,46.99,29.27,46.96,28.91Z"></path><path fill="#ffa733" d="M53.81,34.49a14,14,0,0,0-4.3-4.3,13.826,13.826,0,0,0-2.55-1.28c.03.36.04.72.04,1.09a16.377,16.377,0,0,1-.15,2.23A16.976,16.976,0,0,1,32.23,46.85,16.377,16.377,0,0,1,30,47c-.37,0-.73-.01-1.09-.04a13.519,13.519,0,0,0,1.28,2.55,14.057,14.057,0,0,0,8.64,6.13,101.678,101.678,0,0,0,8.83-7.98,101.678,101.678,0,0,0,7.98-8.83A14.046,14.046,0,0,0,53.81,34.49Z"></path><circle cx="5" cy="48" r="2" fill="#bcbec0"></circle><circle cx="41" cy="13" r="2" fill="#bcbec0"></circle><circle cx="12" cy="12" r="7" fill="#d1d3d4"></circle><path fill="#ee8700" d="M56,42q0,.435-.03.87c-1.7,2.01-3.78,4.26-6.31,6.79s-4.78,4.61-6.79,6.31Q42.435,56,42,56a14.324,14.324,0,0,1-3.17-.36,101.678,101.678,0,0,0,8.83-7.98,101.678,101.678,0,0,0,7.98-8.83A14.324,14.324,0,0,1,56,42Z"></path><path fill="#e6e7e8" d="M59.68,24.32c-1.13-1.13-4.12-4.11-14.51,4.04a12.838,12.838,0,0,1,1.79.55,13.826,13.826,0,0,1,2.55,1.28c3.7-2.66,6.48-3.9,7.34-3.04s-.38,3.64-3.04,7.34a87.8,87.8,0,0,1-8.98,10.34,87.8,87.8,0,0,1-10.34,8.98c-3.7,2.66-6.48,3.9-7.34,3.04s.38-3.64,3.04-7.34a13.519,13.519,0,0,1-1.28-2.55,12.838,12.838,0,0,1-.55-1.79c-8.15,10.39-5.17,13.38-4.04,14.51s4.12,4.11,14.51-4.04a101.678,101.678,0,0,0,8.83-7.98,101.678,101.678,0,0,0,7.98-8.83C63.79,28.44,60.81,25.45,59.68,24.32Z"></path><rect width="2" height="2" x="60" y="52" fill="#ffb655"></rect><rect width="2" height="2" x="53" y="60" fill="#ff9811"></rect><rect width="2" height="2" x="59" y="40" fill="#ff9811"></rect><polygon fill="#ff9811" points="60 4 58 4 58 2 56 2 56 4 54 4 54 6 56 6 56 8 58 8 58 6 60 6 60 4"></polygon><polygon fill="#ff9811" points="8 29 6 29 6 31 4 31 4 33 6 33 6 35 8 35 8 33 10 33 10 31 8 31 8 29"></polygon><rect width="2" height="2" x="15" y="37" fill="#ffb655"></rect><rect width="2" height="2" x="26" y="9" fill="#ff9811"></rect><rect width="2" height="2" x="30" y="21" fill="#ffb655"></rect><rect width="2" height="2" x="37" y="3" fill="#ffb655"></rect><rect width="2" height="2" x="19" y="30" fill="#ff9811"></rect><rect width="2" height="2" x="11" y="57" fill="#ff9811"></rect><path fill="#a7a9ac" d="M20.85,16.47a30.378,30.378,0,0,0-2.04-2.85,6.652,6.652,0,0,1-.9,2.12c1.75,2.35,2.56,4.07,2.54,4.71h-.03c-.66,0-2.36-.81-4.68-2.54a46.539,46.539,0,0,1-5.15-4.5,47.62,47.62,0,0,1-4.5-5.15C4.34,5.91,3.53,4.19,3.55,3.55c.67,0,2.37.8,4.71,2.54a6.652,6.652,0,0,1,2.12-.9C7.37,2.79,3.69.51,2.1,2.1c-.97.97-.63,2.75,1.05,5.43a30.378,30.378,0,0,0,2.04,2.85,50.715,50.715,0,0,0,3.98,4.45,58.012,58.012,0,0,0,4.45,3.98c2.31,1.84,5.02,3.62,6.87,3.62a1.907,1.907,0,0,0,1.41-.53C22.87,20.93,22.53,19.15,20.85,16.47Z"></path></g></svg>